{"title":"Underworld Unrated Extended Cut (2003) 1080p BluRay {Dual Audio}","uid":9796413,"size":3154295585,"categoryP":"video","categoryS":"hd___movies","magnet":"?xt=urn:btih:4d5a1e78fea910d91f4f6485cb3ad947ea151147&amp;dn=Underworld+Unrated+Extended+Cut+%282003%29+1080p+BluRay+%7BDual+Audio%7D&amp;tr=udp%3A%2F%2Ftracker.openbittorrent.com%3A80&amp;tr=udp%3A%2F%2Fopen.demonii.com%3A1337&amp;tr=udp%3A%2F%2Ftracker.coppersurfer.tk%3A6969&amp;tr=udp%3A%2F%2Fexodus.desync.com%3A6969","seeders":4,"leechers":7,"uploader":"SaNRiM","files":-1,"time":1395325298,"description":"Storyline\n\nA war has been raging between the Vampires and Lycan for centuries, Selene (Beckinsale) is a death dealer, assigned to hunt down and eradicate the last of the Lycan. When she comes across Michael Corvin(Speedman)who holds the key to end the war she must decide where her alligances will lie.\n\n\n\nTorrent Info\n\nGeneral\n\nUnique ID : 187922435712560406276972497019053789452 (0x8D608B6BF5F4AE3DBB31DB569F63D10C)\nComplete name : Underworld Unrated Extended Cut (2003) 1080p BluRay {Dual Audio} {6Ch.} [Hindi DD 5.1-English DD 5.1] ~SaNRiM~.mkv\nFormat : Matroska\nFormat version : Version 4 / Version 2\nFile size : 2.92 GiB\nDuration : 2h 13mn\nOverall bit rate : 3 132 Kbps\nEncoded date : UTC 2014-03-20 03:13:57\nWriting library : libebml v1.3.0 + libmatroska v1.4.1\n\n\nVideo\n\nID : 1\nFormat : AVC\nFormat/Info : Advanced Video Codec\nFormat profile : &lt;a class=&quot;__cf_email__&quot; href=&quot;/cdn-cgi/l/email-protection&quot; data-cfemail=&quot;f3bb9a949bb3bfc7ddc3&quot;&gt;[email&amp;#160;protected]&lt;/a&gt;&lt;script cf-hash='f9e31' type=&quot;text/javascript&quot;&gt;\n/* &lt;![CDATA[ */!function(){try{var t=&quot;currentScript&quot;in document?document.currentScript:function(){for(var t=document.getElementsByTagName(&quot;script&quot;),e=t.length;e--;)if(t[e].getAttribute(&quot;cf-hash&quot;))return t[e]}();if(t&amp;&amp;t.previousSibling){var e,r,n,i,c=t.previousSibling,a=c.getAttribute(&quot;data-cfemail&quot;);if(a){for(e=&quot;&quot;,r=parseInt(a.substr(0,2),16),n=2;a.length-n;n+=2)i=parseInt(a.substr(n,2),16)^r,e+=String.fromCharCode(i);e=document.createTextNode(e),c.parentNode.replaceChild(e,c)}}}catch(u){}}();/* ]]&gt; */&lt;/script&gt;\nFormat settings, CABAC : Yes\nFormat settings, ReFrames : 4 frames\nCodec ID : V_MPEG4/ISO/AVC\nDuration : 2h 13mn\nBit rate : 2 227 Kbps\nWidth : 1 920 pixels\nHeight : 816 pixels\nDisplay aspect ratio : 2.35:1\nFrame rate mode : Constant\nFrame rate : 23.976 fps\nColor space : YUV\nChroma subsampling : 4:2:0\nBit depth : 8 bits\nScan type : Progressive\nBits/(Pixel*Frame) : 0.059\nStream size : 2.03 GiB (69%)\nTitle : ~SaNRiM~\nWriting library : x264 core 128 r2216 198a7ea\nLanguage : English\nDefault : Yes\nForced : No\n\n\nAudio #1\n\nID : 2\nFormat : AC-3\nFormat/Info : Audio Coding 3\nMode extension : CM (complete main)\nFormat settings, Endianness : Big\nCodec ID : A_AC3\nDuration : 2h 13mn\nBit rate mode : Constant\nBit rate : 448 Kbps\nChannel(s) : 6 channels\nChannel positions : Front: L C R, Side: L R, LFE\nSampling rate : 48.0 KHz\nBit depth : 16 bits\nCompression mode : Lossy\nStream size : 428 MiB (14%)\nTitle : ~SaNRiM~\nLanguage : Hindi\nDefault : Yes\nForced : No\n\n\nAudio #2\n\nID : 3\nFormat : AC-3\nFormat/Info : Audio Coding 3\nMode extension : CM (complete main)\nFormat settings, Endianness : Big\nCodec ID : A_AC3\nDuration : 2h 13mn\nBit rate mode : Constant\nBit rate : 448 Kbps\nChannel(s) : 6 channels\nChannel positions : Front: L C R, Side: L R, LFE\nSampling rate : 48.0 KHz\nBit depth : 16 bits\nCompression mode : Lossy\nStream size : 428 MiB (14%)\nTitle : ~SaNRiM~\nLanguage : English\nDefault : No\nForced : No\n\n\nText\n\nID : 4\nFormat : PGS\nMuxing mode : zlib\nCodec ID : S_HDMV/PGS\nCodec ID/Info : The same subtitle format used on BDs/HD-DVDs\nTitle : ~SaNRiM~\nLanguage : English\nDefault : Yes\nForced : No\n\n\n\nScreens\n &lt;a href=&quot;\nhttp://someimage.com/w7usmFC&quot; rel=&quot;nofollow&quot; target=&quot;_NEW&quot;&gt;\nhttp://someimage.com/w7usmFC&lt;/a&gt; &lt;a href=&quot;\nhttp://someimage.com/Sbu4SfG&quot; rel=&quot;nofollow&quot; target=&quot;_NEW&quot;&gt;\nhttp://someimage.com/Sbu4SfG&lt;/a&gt; &lt;a href=&quot;\nhttp://someimage.com/E8QGjSP&quot; rel=&quot;nofollow&quot; target=&quot;_NEW&quot;&gt;\nhttp://someimage.com/E8QGjSP&lt;/a&gt; &lt;a href=&quot;\nhttp://someimage.com/cdR4b9N&quot; rel=&quot;nofollow&quot; target=&quot;_NEW&quot;&gt;\nhttp://someimage.com/cdR4b9N&lt;/a&gt; &lt;a href=&quot;\nhttp://someimage.com/xafHe4u&quot; rel=&quot;nofollow&quot; target=&quot;_NEW&quot;&gt;\nhttp://someimage.com/xafHe4u&lt;/a&gt; &lt;a href=&quot;\nhttp://someimage.com/GhoaLlm&quot; rel=&quot;nofollow&quot; target=&quot;_NEW&quot;&gt;\nhttp://someimage.com/GhoaLlm&lt;/a&gt; &lt;a href=&quot;\nhttp://someimage.com/gBAcj58&quot; rel=&quot;nofollow&quot; target=&quot;_NEW&quot;&gt;\nhttp://someimage.com/gBAcj58&lt;/a&gt; &lt;a href=&quot;\nhttp://someimage.com/LMrFQhP&quot; rel=&quot;nofollow&quot; target=&quot;_NEW&quot;&gt;\nhttp://someimage.com/LMrFQhP&lt;/a&gt; &lt;a href=&quot;\nhttp://someimage.com/XJ0RYoP&quot; rel=&quot;nofollow&quot; target=&quot;_NEW&quot;&gt;\nhttp://someimage.com/XJ0RYoP&lt;/a&gt; &lt;a href=&quot;\nhttp://someimage.com/eVKEVk9&quot; rel=&quot;nofollow&quot; target=&quot;_NEW&quot;&gt;\nhttp://someimage.com/eVKEVk9&lt;/a&gt; &lt;a href=&quot;\nhttp://someimage.com/TO7kRSU&quot; rel=&quot;nofollow&quot; target=&quot;_NEW&quot;&gt;\nhttp://someimage.com/TO7kRSU&lt;/a&gt; &lt;a href=&quot;\nhttp://someimage.com/vwWIRTl&quot; rel=&quot;nofollow&quot; target=&quot;_NEW&quot;&gt;\nhttp://someimage.com/vwWIRTl&lt;/a&gt; &lt;a href=&quot;\nhttp://someimage.com/x95sIyK&quot; rel=&quot;nofollow&quot; target=&quot;_NEW&quot;&gt;\nhttp://someimage.com/x95sIyK&lt;/a&gt; &lt;a href=&quot;\nhttp://someimage.com/kAvNDLB&quot; rel=&quot;nofollow&quot; target=&quot;_NEW&quot;&gt;\nhttp://someimage.com/kAvNDLB&lt;/a&gt; &lt;a href=&quot;\nhttp://someimage.com/cbwltW8&quot; rel=&quot;nofollow&quot; target=&quot;_NEW&quot;&gt;\nhttp://someimage.com/cbwltW8&lt;/a&gt; &lt;a href=&quot;\nhttp://someimage.com/8IS5hxQ&quot; rel=&quot;nofollow&quot; target=&quot;_NEW&quot;&gt;\nhttp://someimage.com/8IS5hxQ&lt;/a&gt; &lt;a href=&quot;\nhttp://someimage.com/kyUrNtA&quot; rel=&quot;nofollow&quot; target=&quot;_NEW&quot;&gt;\nhttp://someimage.com/kyUrNtA&lt;/a&gt; &lt;a href=&quot;\nhttp://someimage.com/5PrFm08&quot; rel=&quot;nofollow&quot; target=&quot;_NEW&quot;&gt;\nhttp://someimage.com/5PrFm08&lt;/a&gt; &lt;a href=&quot;\nhttp://someimage.com/aFSpmfn&quot; rel=&quot;nofollow&quot; target=&quot;_NEW&quot;&gt;\nhttp://someimage.com/aFSpmfn&lt;/a&gt; &lt;a href=&quot;\nhttp://someimage.com/2ETCwas&quot; rel=&quot;nofollow&quot; target=&quot;_NEW&quot;&gt;\nhttp://someimage.com/2ETCwas&lt;/a&gt; &lt;a href=&quot;\nhttp://someimage.com/Iq55R4B&quot; rel=&quot;nofollow&quot; target=&quot;_NEW&quot;&gt;\nhttp://someimage.com/Iq55R4B&lt;/a&gt; &lt;a href=&quot;\nhttp://someimage.com/wxjRIje&quot; rel=&quot;nofollow&quot; target=&quot;_NEW&quot;&gt;\nhttp://someimage.com/wxjRIje&lt;/a&gt;\n\n\n\n                  If you like my work please comment\n                          Any request? Just PM me\n                       Please seed long after download\n                         Thank you &amp; enjoy the best\n                                 ~SaNRiM~\t\n\n\nNOTE: HINDI AUDIO IS REMASTERED\n\nTHANKS TO SBAZ44 FOR AUDIO SOURCE","torrent":{"xt":"urn:btih:4d5a1e78fea910d91f4f6485cb3ad947ea151147","amp;dn":"Underworld+Unrated+Extended+Cut+%282003%29+1080p+BluRay+%7BDual+Audio%7D","amp;tr":["udp%3A%2F%2Ftracker.openbittorrent.com%3A80","udp%3A%2F%2Fopen.demonii.com%3A1337","udp%3A%2F%2Ftracker.coppersurfer.tk%3A6969","udp%3A%2F%2Fexodus.desync.com%3A6969"],"infoHash":"4d5a1e78fea910d91f4f6485cb3ad947ea151147","infoHashBuffer":{"type":"Buffer","data":[77,90,30,120,254,169,16,217,31,79,100,133,203,58,217,71,234,21,17,71]},"announce":[],"urlList":[]}}